#!OML:ASF E:\acrobat2\Project_11_07_03\Capture day 1\Session 1\Acrobat.ASF
:FULLY-SPECIFIED
:DEGREES
481
root 11.4843 17.9182 26.0603 -174.155 -55.0558 -178.884
lowerback -5.87886 1.64552 -1.03018
upperback -1.17345 2.24919 -2.61419
thorax 2.15112 1.09172 -1.94157
lowerneck 6.29385 7.95698 5.57149
upperneck -6.46417 10.8705 -4.00424
head -2.62615 5.41425 -2.6751
rclavicle 5.75482e-014 -2.94201e-014
rhumerus -49.9841 -5.20244 -71.3564
rradius 55.0981
rwrist -4.76208
rhand -4.41534 -36.2959
rfingers 7.12502
rthumb 21.3551 -65.1392
lclavicle 5.75482e-014 -2.94201e-014
lhumerus 340.402 2.41637 -297.264
lradius 17.19
lwrist 5.94234
lhand -18.5717 -9.44066
lfingers 7.12502
lthumb 7.71854 20.3985
rfemur -2.19134 19.4206 4.05761
rtibia -3.80409
rfoot -34.4148 -37.0631
rtoes 22.4181
lfemur 8.78114 -6.32957 -10.253
ltibia 1.02843
lfoot -29.074 4.99704
ltoes 22.1325
482
root 11.4767 17.9176 26.0539 -174.101 -55.191 -178.903
lowerback -5.95282 1.72175 -1.01268
upperback -1.20302 2.35014 -2.61313
thorax 2.16537 1.14181 -1.94078
lowerneck 6.31888 7.89645 5.53813
upperneck -6.43246 10.7899 -3.97862
head -2.62764 5.37465 -2.65967
rclavicle -2.21148e-014 -1.74931e-014
rhumerus -49.8534 -5.17798 -71.0787
rradius 55.308
rwrist -4.72565
rhand -4.35271 -36.2274
rfingers 7.12502
rthumb 21.4152 -65.0638
lclavicle -2.21148e-014 -1.74931e-014
lhumerus 339.829 1.34345 -298.191
lradius 17.3065
lwrist 5.27176
lhand -18.6357 -9.87456
lfingers 7.12502
lthumb 7.6568 19.9668
rfemur -2.12351 19.7435 4.06873
rtibia -3.91332
rfoot -35.0564 -37.2174
rtoes 22.9245
lfemur 8.80309 -6.54 -10.2853
ltibia 0.92136
lfoot -29.1251 5.09904
ltoes 21.9332
483
root 11.4681 17.9204 26.0475 -174.167 -55.2909 -178.841
lowerback -5.92203 1.8243 -0.938845
upperback -1.23791 2.48071 -2.59972
thorax 2.11842 1.20759 -1.95963
lowerneck 6.44863 7.80692 5.61068
upperneck -6.51907 10.6743 -4.10692
head -2.67685 5.31969 -2.72343
rclavicle -2.1916e-014 -1.51076e-014
rhumerus -49.7321 -5.20574 -70.7585
rradius 55.4621
rwrist -4.70829
rhand -4.11927 -36.4253
rfingers 7.12502
rthumb 21.6394 -65.236
lclavicle -2.1916e-014 -1.51076e-014
lhumerus 339.141 0.073424 -298.966
lradius 17.6168
lwrist 4.4184
lhand -18.9417 -10.1658
lfingers 7.12502
lthumb 7.36147 19.6862
rfemur -2.01632 19.8789 4.15185
rtibia -4.00287
rfoot -35.333 -37.2039
rtoes 23.408
lfemur 8.89976 -6.67035 -10.2691
ltibia 0.801885
lfoot -29.2832 4.90158
ltoes 22.929
484
root 11.4588 17.9224 26.044 -174.169 -55.4481 -178.807
lowerback -5.90107 1.86629 -0.973072
upperback -1.28368 2.53619 -2.48853
thorax 2.05459 1.23558 -1.82297
lowerneck 6.60051 7.74822 5.58355
upperneck -6.66614 10.5829 -4.34362
head -2.74903 5.2829 -2.8107
rclavicle 1.82385e-014 -3.97569e-015
rhumerus -49.4996 -4.993 -70.3328
rradius 55.494
rwrist -4.78527
rhand -4.04771 -36.4343
rfingers 7.12502
rthumb 21.7081 -65.2372
lclavicle 1.82385e-014 -3.97569e-015
lhumerus 338.332 -0.975587 -299.571
lradius 17.9887
lwrist 3.62926
lhand -19.4249 -10.5162
lfingers 7.12502
lthumb 6.89503 19.3515
rfemur -1.93134 19.8295 4.19298
rtibia -4.03677
rfoot -35.4886 -37.1102
rtoes 24.0103
lfemur 8.90299 -6.86537 -10.2959
ltibia 0.743024
lfoot -29.4138 4.74466
ltoes 24.0643
485
root 11.4515 17.9223 26.0434 -174.024 -55.6652 -178.889
lowerback -5.87174 1.85829 -1.11223
upperback -1.36081 2.52874 -2.36572
thorax 1.94695 1.23117 -1.62151
lowerneck 6.70033 7.68287 5.49319
upperneck -6.71278 10.4778 -4.52791
head -2.78451 5.24026 -2.86204
rclavicle -1.85367e-014 4.13472e-014
rhumerus -49.2425 -4.65347 -69.8728
rradius 55.4354
rwrist -4.86754
rhand -3.98927 -36.4688
rfingers 7.12502
rthumb 21.7643 -65.2651
lclavicle -1.85367e-014 4.13472e-014
lhumerus 337.845 -0.95796 -300.379
lradius 17.6805
lwrist 1.97289
lhand -19.7859 -11.3121
lfingers 7.12502
lthumb 6.54652 18.5667
rfemur -1.89656 19.7891 4.12101
rtibia -4.07813
rfoot -35.9062 -37.0164
rtoes 24.8502
lfemur 8.79553 -7.0405 -10.3779
ltibia 0.752029
lfoot -29.3508 5.02084
ltoes 23.2845
486
root 11.4449 17.9229 26.0405 -174.088 -55.8862 -178.786
lowerback -5.79454 1.90013 -1.06797
upperback -1.4325 2.57715 -2.32521
thorax 1.83123 1.25567 -1.60487
lowerneck 6.88517 7.57758 5.5767
upperneck -6.81185 10.3432 -4.66731
head -2.84954 5.1766 -2.9354
rclavicle 5.18083e-014 -7.15625e-015
rhumerus -49.1175 -4.62433 -69.489
rradius 55.392
rwrist -4.8121
rhand -3.91478 -36.7076
rfingers 7.12502
rthumb 21.8358 -65.4956
lclavicle 5.18083e-014 -7.15625e-015
lhumerus 337.748 -0.467933 -301.426
lradius 16.8899
lwrist -0.399761
lhand -20.0608 -12.1215
lfingers 7.12502
lthumb 6.28112 17.7654
rfemur -1.78748 19.9255 4.23037
rtibia -4.10664
rfoot -36.6358 -36.9157
rtoes 25.7515
lfemur 8.75335 -7.06963 -10.2763
ltibia 0.752098
lfoot -29.167 5.25693
ltoes 22.1443
487
root 11.4362 17.9234 26.0344 -174.244 -56.0928 -178.549
lowerback -5.83834 1.99158 -0.854902
upperback -1.46554 2.68711 -2.36341
thorax 1.83572 1.31123 -1.75441
lowerneck 6.84293 7.46483 5.58166
upperneck -6.71733 10.2008 -4.54672
head -2.82375 5.10188 -2.88611
rclavicle -4.19684e-014 2.94201e-014
rhumerus -49.0665 -4.90692 -69.1626
rradius 55.3739
rwrist -4.6786
rhand -3.79473 -36.8959
rfingers 7.12502
rthumb 21.9511 -65.6704
lclavicle -4.19684e-014 2.94201e-014
lhumerus 337.408 -2.06956 -302.021
lradius 16.826
lwrist -0.731812
lhand -20.5485 -12.3789
lfingers 7.12502
lthumb 5.81025 17.5215
rfemur -1.67552 20.184 4.43947
rtibia -4.22358
rfoot -37.2583 -37.0418
rtoes 26.2194
lfemur 8.72331 -7.08611 -10.0726
ltibia 0.695135
lfoot -29.1182 5.16659
ltoes 22.3573
488
root 11.4262 17.9229 26.0288 -174.178 -56.2504 -178.551
lowerback -5.95971 2.05405 -0.782389
upperback -1.45049 2.7695 -2.40053
thorax 1.92628 1.35245 -1.82237
lowerneck 7.05177 7.32985 5.71272
upperneck -6.98341 10.0237 -4.77209
head -2.94706 5.01691 -3.0042
rclavicle 7.95387e-014 3.97569e-015
rhumerus -48.8095 -5.09674 -68.8451
rradius 55.228
rwrist -4.65408
rhand -3.59531 -37.1166
rfingers 7.12502
rthumb 22.1425 -65.8686
lclavicle 7.95387e-014 3.97569e-015
lhumerus 336.183 -7.33895 -301.543
lradius 18.2348
lwrist 3.15661
lhand -21.0343 -11.8621
lfingers 7.12502
lthumb 5.34126 18.0506
rfemur -1.60433 20.3623 4.44942
rtibia -4.31635
rfoot -37.9552 -36.9357
rtoes 27.0785
lfemur 8.65107 -7.00778 -10.0371
ltibia 0.648478
lfoot -29.0325 5.13754
ltoes 22.0509
489
root 11.417 17.9211 26.0234 -174.164 -56.3461 -178.531
lowerback -6.02398 2.11211 -0.830031
upperback -1.43896 2.85146 -2.3332
thorax 1.97042 1.39363 -1.71746
lowerneck 7.29324 7.25182 5.72263
upperneck -7.22214 9.91087 -5.00711
head -3.06985 4.96855 -3.10753
rclavicle 5.38458e-014 1.90833e-014
rhumerus -48.4667 -5.11889 -68.4733
rradius 54.95
rwrist -4.70389
rhand -3.78814 -37.1991
rfingers 7.12502
rthumb 21.9574 -65.973
lclavicle 5.38458e-014 1.90833e-014
lhumerus 335.867 -7.62305 -302.117
lradius 17.9482
lwrist 2.45991
lhand -21.0689 -12.0744
lfingers 7.12502
lthumb 5.30783 17.8392
rfemur -1.56297 20.3973 4.46604
rtibia -4.27353
rfoot -38.4509 -36.6522
rtoes 27.8124
lfemur 8.64286 -7.01457 -10.0305
ltibia 0.592551
lfoot -28.9955 5.08617
ltoes 22.3236
490
root 11.4083 17.9196 26.0209 -174.327 -56.4729 -178.322
lowerback -6.02427 2.24071 -0.772519
upperback -1.45427 3.0193 -2.26289
thorax 1.95823 1.47838 -1.66453
lowerneck 6.99374 7.18269 5.57653
upperneck -6.83661 9.80576 -4.84773
head -2.90186 4.91704 -2.99015
rclavicle 2.93207e-015 5.56597e-014
rhumerus -48.2988 -5.29223 -67.9943
rradius 54.6397
rwrist -4.76867
rhand -4.14367 -37.0449
rfingers 7.12502
rthumb 21.616 -65.8584
lclavicle 2.93207e-015 5.56597e-014
lhumerus 335.467 -8.63358 -302.423
lradius 17.9491
lwrist 2.45627
lhand -21.2175 -11.7867
lfingers 7.12502
lthumb 5.16435 18.1304
rfemur -1.55492 20.24 4.5893
rtibia -4.21899
rfoot -38.2697 -36.6974
rtoes 27.3901
lfemur 8.70247 -7.36118 -9.96984
ltibia 0.490851
lfoot -29.2293 4.95746
ltoes 23.7223
